<svg id="Capa_1" enable-background="new 0 0 511.98 511.98" height="512" viewBox="0 0 511.98 511.98" width="512" xmlns="http://www.w3.org/2000/svg"><g><circle cx="255.99" cy="255.99" fill="#ffe07d" r="255.99"/><path d="m276.01 511.203c-6.604.512-13.287.775-20.023.775-141.379-.001-255.987-114.609-255.987-255.988s114.608-255.987 255.987-255.987c6.735 0 13.418.263 20.023.775-132.031 10.201-235.978 120.568-235.978 255.212s103.947 245.011 235.978 255.213z" fill="#ffc250"/><circle cx="255.99" cy="255.99" fill="#ffc250" r="195.111"/><g><g><g><path d="m325.211 154.396c-4.267 0-7.726-3.459-7.726-7.726v-51.216c0-4.267 3.459-7.726 7.726-7.726s7.726 3.459 7.726 7.726v51.215c0 4.268-3.459 7.727-7.726 7.727z" fill="#ffe07d"/></g><g fill="#ffe07d"><path d="m273.295 154.396c-13.802 0-25.032-11.229-25.032-25.032v-16.604c0-13.802 11.229-25.032 25.032-25.032 13.802 0 25.031 11.229 25.031 25.032v16.605c.001 13.802-11.228 25.031-25.031 25.031zm0-51.215c-5.282 0-9.579 4.297-9.579 9.579v16.605c0 5.282 4.297 9.579 9.579 9.579s9.578-4.297 9.578-9.579v-16.605c.001-5.282-4.296-9.579-9.578-9.579z"/><path d="m204.075 154.396c-13.802 0-25.032-11.229-25.032-25.032v-16.604c0-13.802 11.229-25.032 25.032-25.032 13.802 0 25.032 11.229 25.032 25.032v16.605c-.001 13.802-11.23 25.031-25.032 25.031zm0-51.215c-5.282 0-9.579 4.297-9.579 9.579v16.605c0 5.282 4.297 9.579 9.579 9.579s9.579-4.297 9.579-9.579v-16.605c0-5.282-4.298-9.579-9.579-9.579z"/></g></g><g><g><path d="m176.06 411.393c-4.267 0-7.726-3.459-7.726-7.726v-51.215c0-4.267 3.459-7.726 7.726-7.726s7.726 3.459 7.726 7.726v51.215c0 4.267-3.459 7.726-7.726 7.726z" fill="#ffe07d"/></g><g fill="#ffe07d"><path d="m227.975 411.393c-13.802 0-25.032-11.229-25.032-25.031v-16.605c0-13.802 11.229-25.031 25.032-25.031 13.802 0 25.032 11.229 25.032 25.031v16.605c0 13.802-11.229 25.031-25.032 25.031zm0-51.215c-5.282 0-9.579 4.297-9.579 9.578v16.605c0 5.282 4.297 9.578 9.579 9.578s9.579-4.297 9.579-9.578v-16.605c0-5.281-4.297-9.578-9.579-9.578z"/><path d="m297.196 411.393c-13.802 0-25.032-11.229-25.032-25.031v-16.605c0-13.802 11.229-25.031 25.032-25.031 13.802 0 25.031 11.229 25.031 25.031v16.605c.001 13.802-11.228 25.031-25.031 25.031zm0-51.215c-5.282 0-9.579 4.297-9.579 9.578v16.605c0 5.282 4.297 9.578 9.579 9.578s9.578-4.297 9.578-9.578v-16.605c.001-5.281-4.296-9.578-9.578-9.578z"/></g><g><path d="m349.111 411.393c-4.267 0-7.726-3.459-7.726-7.726v-51.215c0-4.267 3.459-7.726 7.726-7.726s7.726 3.459 7.726 7.726v51.215c.001 4.267-3.458 7.726-7.726 7.726z" fill="#ffe07d"/></g></g><g><path d="m394.431 241.373c-4.267 0-7.726-3.459-7.726-7.726v-51.215c0-4.267 3.459-7.726 7.726-7.726s7.726 3.459 7.726 7.726v51.215c.001 4.267-3.458 7.726-7.726 7.726z" fill="#ffe07d"/></g><g fill="#ffe07d"><g><path d="m342.516 241.373c-13.802 0-25.031-11.229-25.031-25.032v-16.605c0-13.802 11.229-25.031 25.031-25.031s25.032 11.229 25.032 25.031v16.605c0 13.802-11.23 25.032-25.032 25.032zm0-51.215c-5.282 0-9.578 4.297-9.578 9.578v16.605c0 5.282 4.297 9.579 9.578 9.579 5.282 0 9.579-4.297 9.579-9.579v-16.605c0-5.282-4.297-9.578-9.579-9.578z"/><path d="m290.6 241.373c-4.267 0-7.726-3.459-7.726-7.726v-51.215c0-4.267 3.459-7.726 7.726-7.726s7.726 3.459 7.726 7.726v51.215c.001 4.267-3.459 7.726-7.726 7.726z"/></g><g><path d="m255.99 241.373c-4.267 0-7.726-3.459-7.726-7.726v-51.215c0-4.267 3.459-7.726 7.726-7.726s7.726 3.459 7.726 7.726v51.215c0 4.267-3.459 7.726-7.726 7.726z"/><path d="m221.38 241.373c-4.267 0-7.726-3.459-7.726-7.726v-51.215c0-4.267 3.459-7.726 7.726-7.726s7.726 3.459 7.726 7.726v51.215c0 4.267-3.459 7.726-7.726 7.726z"/></g><g><path d="m169.464 241.373c-13.802 0-25.032-11.229-25.032-25.032v-16.605c0-13.802 11.229-25.031 25.032-25.031 13.802 0 25.031 11.229 25.031 25.031v16.605c.001 13.802-11.228 25.032-25.031 25.032zm0-51.215c-5.282 0-9.579 4.297-9.579 9.578v16.605c0 5.282 4.297 9.579 9.579 9.579s9.578-4.297 9.578-9.579v-16.605c.001-5.282-4.296-9.578-9.578-9.578z"/><path d="m117.549 241.373c-4.267 0-7.726-3.459-7.726-7.726v-51.215c0-4.267 3.459-7.726 7.726-7.726s7.726 3.459 7.726 7.726v51.215c0 4.267-3.459 7.726-7.726 7.726z"/></g><g><path d="m377.126 328.349c-13.802 0-25.031-11.229-25.031-25.032v-16.605c0-13.802 11.229-25.032 25.031-25.032s25.032 11.229 25.032 25.032v16.605c0 13.803-11.23 25.032-25.032 25.032zm0-51.215c-5.282 0-9.578 4.297-9.578 9.579v16.605c0 5.282 4.297 9.579 9.578 9.579 5.282 0 9.579-4.297 9.579-9.579v-16.605c0-5.282-4.297-9.579-9.579-9.579z"/><path d="m325.211 328.349c-4.267 0-7.726-3.459-7.726-7.726v-51.215c0-4.267 3.459-7.726 7.726-7.726s7.726 3.459 7.726 7.726v51.215c0 4.267-3.459 7.726-7.726 7.726z"/></g><g><path d="m273.295 328.349c-13.802 0-25.032-11.229-25.032-25.032v-16.605c0-13.802 11.229-25.032 25.032-25.032 13.802 0 25.031 11.229 25.031 25.032v16.605c.001 13.803-11.228 25.032-25.031 25.032zm0-51.215c-5.282 0-9.579 4.297-9.579 9.579v16.605c0 5.282 4.297 9.579 9.579 9.579s9.578-4.297 9.578-9.579v-16.605c.001-5.282-4.296-9.579-9.578-9.579z"/><path d="m221.38 328.349c-4.267 0-7.726-3.459-7.726-7.726v-51.215c0-4.267 3.459-7.726 7.726-7.726s7.726 3.459 7.726 7.726v51.215c0 4.267-3.459 7.726-7.726 7.726z"/><path d="m186.769 328.349c-4.267 0-7.726-3.459-7.726-7.726v-51.215c0-4.267 3.459-7.726 7.726-7.726s7.726 3.459 7.726 7.726v51.215c.001 4.267-3.459 7.726-7.726 7.726z"/></g></g><g><path d="m134.854 328.349c-13.802 0-25.032-11.229-25.032-25.032v-16.605c0-13.802 11.229-25.032 25.032-25.032 13.802 0 25.031 11.229 25.031 25.032v16.605c0 13.803-11.229 25.032-25.031 25.032zm0-51.215c-5.282 0-9.579 4.297-9.579 9.579v16.605c0 5.282 4.297 9.579 9.579 9.579s9.578-4.297 9.578-9.579v-16.605c.001-5.282-4.296-9.579-9.578-9.579z" fill="#ffe07d"/></g></g></g></svg>