<svg id="Capa_1" enable-background="new 0 0 497 497" height="512" viewBox="0 0 497 497" width="512" xmlns="http://www.w3.org/2000/svg"><g><path d="m410.654 428.123c9.104 0 17.639-4.433 22.876-11.881l16.348-23.255h38.151c4.955 0 8.971-4.016 8.971-8.971v-111.925c0-4.955-4.017-8.971-8.971-8.971h-42.625l-128.577-15.826v180.829z" fill="#fed2a4"/><path d="m248.5 165.476-31.354 16.484c-3.668 1.928-7.955-1.186-7.255-5.271l5.988-34.913-25.366-24.725c-2.968-2.893-1.33-7.933 2.771-8.529l35.054-5.094 15.677-31.765c1.834-3.716 7.133-3.716 8.967 0l15.677 31.765 35.054 5.094c4.101.596 5.739 5.636 2.771 8.529l-25.365 24.725 5.988 34.913c.701 4.084-3.587 7.199-7.255 5.271z" fill="#ffd064"/><path d="m86.346 428.123c-9.104 0-17.639-4.433-22.876-11.881l-16.348-23.255h-38.151c-4.955 0-8.971-4.016-8.971-8.971v-111.925c0-4.955 4.016-8.971 8.971-8.971h42.625l128.577-15.826v180.829z" fill="#d88a55"/><g><path d="m488.029 263.12h-30c4.955 0 8.971 4.016 8.971 8.971v111.925c0 4.955-4.017 8.971-8.971 8.971h30c4.955 0 8.971-4.016 8.971-8.971v-111.925c0-4.955-4.017-8.971-8.971-8.971z" fill="#ffbd86"/></g><g fill="#c57a44"><path d="m117.797 269.897c0 12.484 10.12 22.604 22.604 22.604h53.393c12.484 0 22.604-10.12 22.604-22.604 0-12.484-10.12-22.604-22.604-22.604h-53.393c-12.484 0-22.604 10.12-22.604 22.604z"/><path d="m117.797 315.104c0 12.484 10.12 22.604 22.604 22.604h67.38c12.484 0 22.604-10.12 22.604-22.604 0-12.484-10.12-22.604-22.604-22.604h-67.38c-12.484.001-22.604 10.121-22.604 22.604z"/><path d="m117.797 360.312c0 12.484 10.12 22.604 22.604 22.604h53.393c12.484 0 22.604-10.12 22.604-22.604 0-12.484-10.12-22.604-22.604-22.604h-53.393c-12.484 0-22.604 10.12-22.604 22.604z"/><path d="m117.797 405.519c0 12.484 10.12 22.604 22.604 22.604h41.431c12.484 0 22.604-10.12 22.604-22.604 0-12.484-10.12-22.604-22.604-22.604h-41.431c-12.484 0-22.604 10.12-22.604 22.604z"/></g><path d="m379.203 269.897c0 12.484-10.12 22.604-22.604 22.604h-53.393c-12.484 0-22.604-10.12-22.604-22.604 0-12.484 10.12-22.604 22.604-22.604h53.393c12.484 0 22.604 10.12 22.604 22.604z" fill="#ffbd86"/><path d="m379.203 315.104c0 12.484-10.12 22.604-22.604 22.604h-67.38c-12.484 0-22.604-10.12-22.604-22.604 0-12.484 10.12-22.604 22.604-22.604h67.38c12.484.001 22.604 10.121 22.604 22.604z" fill="#ffbd86"/><path d="m379.203 360.312c0 12.484-10.12 22.604-22.604 22.604h-53.393c-12.484 0-22.604-10.12-22.604-22.604 0-12.484 10.12-22.604 22.604-22.604h53.393c12.484 0 22.604 10.12 22.604 22.604z" fill="#ffbd86"/><path d="m379.203 405.519c0 12.484-10.12 22.604-22.604 22.604h-41.431c-12.484 0-22.604-10.12-22.604-22.604 0-12.484 10.12-22.604 22.604-22.604h41.431c12.484 0 22.604 10.12 22.604 22.604z" fill="#ffbd86"/><path d="m51.596 263.119-.877 17.241 32.947 30.986c49.811 0 53.482-34.57 53.482-34.57h10.905v3.051c0 17.407 14.111 31.519 31.519 31.519 4.253 0 7.701-3.448 7.701-7.701v-54.678c0-14.064-11.401-25.465-25.465-25.465h-55.651c-5.422 0-10.682 1.84-14.922 5.22z" fill="#d88a55"/><path d="m445.404 263.119.877 17.241-32.947 30.986c-49.811 0-53.482-34.57-53.482-34.57h-10.905v3.051c0 17.407-14.112 31.519-31.519 31.519-4.253 0-7.701-3.448-7.701-7.701v-54.678c0-14.064 11.401-25.465 25.465-25.465h55.651c5.422 0 10.682 1.84 14.922 5.22z" fill="#fed2a4"/><path d="" style="fill:none;stroke:#000;stroke-width:15;stroke-linecap:round;stroke-linejoin:round;stroke-miterlimit:10"/></g></svg>