<svg id="Layer_1" enable-background="new 0 0 50 50" height="512" viewBox="0 0 50 50" width="512" xmlns="http://www.w3.org/2000/svg"><g><g><g><path d="m9.4506 12.7307-.0097 3.4229-.7439-.4295.0097-3.4229z" fill="#d7d7d7"/></g><g><path d="m9.451 12.7339-.0105 3.4224c6.8272-3.9709 15.4396-5.9597 22.8455-5.7152v-3.4223c-7.4036-.2425-16.0111 1.7463-22.835 5.7151z" fill="#b0afb0"/><path d="m8.7067 12.3013.744.4295c6.8247-3.9663 15.433-5.9566 22.8353-5.7152v-.6063c-7.687-.2368-16.5587 1.812-23.5793 5.892z" fill="#d7d7d7"/></g></g><g><g enable-background="new"><g><path d="m42.7734 20.5474c-.4992-1.4009-1.7266-2.4154-3.1495-2.8476-8.4548-2.5682-15.2896-5.9162-18.488-11.0135-.6089-.3465-1.1652-.3783-1.5641-.1471l-5.1524 2.9929c.3995-.2286 1.0537-.3316 1.5571.1502 4.3473 4.163 10.1474 8.3663 18.5076 11.0122 1.4119.4469 2.633 1.4543 3.13 2.8494.1557.4369.2423.881.2391 1.2966l-.021 9.8044c-.0105.693-.2519 1.1758-.6508 1.407l-12.7017 7.3795c-.0145.0097-.0252.0246-.0402.0333l17.9013-10.4093c.3989-.2307.6403-.714.6508-1.4065l.021-9.805c.0031-.4156-.0835-.8596-.2392-1.2965z" fill="#4f4d4d"/><g><path d="m37.8552 24.8426-.021 9.8044c-.0105.693-.2519 1.1758-.6508 1.4065l-12.0616 7.0017c-.021-.0205-.042-.0313-.042-.0523l1.4172-.8293c.3989-.2307.6403-.7135.6508-1.4065l.0105-7.2641.0104-1.1758s0 0 0-.0108v-1.3537c0-.3885-.0735-.8088-.2204-1.2179 0-.021-.0105-.0528-.021-.0738-.4933-1.3962-1.7111-2.404-3.1282-2.855-8.356-2.6454-14.161-6.8444-18.507-11.0121-.3569-.3465-.7978-.3778-1.1652-.2937l10.2875-5.973c.4094-.2312 1.0603-.3362 1.5641.1466 4.346 4.1569 10.1405 8.3667 18.507 11.0121.3044.0943.5984.2204.8817.3675 1.0183.5249 1.8581 1.3855 2.2465 2.4773.1575.4407.2415.8816.2415 1.3019z" fill="#e8e8e8"/><path d="m27.1472 40.7707.021-9.8044c.0032-.4156-.0834-.8597-.2391-1.2966-.497-1.3951-1.7181-2.4025-3.13-2.8494-8.3601-2.646-14.1603-6.8493-18.5075-11.0123-.3612-.3455-.7978-.3844-1.1644-.2973l-2.4566 1.427c.3989-.2307.9552-.1994 1.5641.1574l19.6827 11.3688c1.2177.693 2.194 2.3937 2.194 3.7894l-.0315 9.7942c0 .4972-.1271.8878-.3461 1.1548l1.7627-1.0246c.3988-.2312.6402-.714.6507-1.407z" fill="#4f4d4d"/></g></g><g><path d="m22.9178 28.4597c1.2131.7004 2.1951 2.4011 2.1912 3.795l-.0278 9.7964c-.004 1.3939-.9924 1.9575-2.2055 1.2569-6.9733-3.3245-13.5337-7.1135-19.6845-11.3647-1.2131-.7003-2.1951-2.4017-2.1912-3.7955l.0278-9.7964c.004-1.3939.9924-1.9569 2.2055-1.2565z" fill="#686868"/></g><path d="m24.4814 32.2533-.0314 9.7942c0 .3465-.0735.9344-.5879.9344-.1889 0-.4304-.0841-.6719-.2204-6.8023-3.2435-13.2792-6.9704-19.2732-11.0854-.126-.0841-.2415-.1681-.3674-.2522-1.0497-.6084-1.921-2.0995-1.921-3.2748l.0314-9.7941c0-.3465.0735-.9344.5879-.9344.1889 0 .4304.0841.6719.2204l17.7407 10.2458 1.942 1.123c1.0077.5771 1.8789 2.0892 1.8789 3.2435z" fill="#4f4d4d"/></g></g><g><g><path d="m38.8602 29.7103-.0097 3.4229-.744-.4296.0097-3.4228z" fill="#e8e8e8"/></g><g><path d="m49 16.793-.0097 3.4229c-.0121 4.2684-3.5156 9.0678-10.1398 12.9173l.0097-3.4228c6.6241-3.8496 10.1277-8.6491 10.1398-12.9174z" fill="#b0afb0"/><path d="m46.8498 12.9677c.3485.5531.6136 1.1307.7974 1.7269-.1832-.5962-.4486-1.1734-.7974-1.7269z" fill="none"/><path d="m44.2886 10.3438c-3.3216-2.3538-7.9207-3.1956-12.0026-3.3281v.0031c4.2475.1389 8.1022 1.0062 10.9877 2.671.3618.2086.6959.4285 1.0149.654z" fill="none"/><path d="m32.286 7.0188v3.4224c4.2433.1404 8.0941 1.0072 10.9772 2.6705 2.5215 1.4495 3.9897 3.3435 4.4869 5.4455 1.7596-7.7424-7.2314-11.2692-15.4641-11.5384z" fill="#b0afb0"/><path d="m44.0092 9.2556c-3.082-1.7791-7.1982-2.7074-11.7233-2.8463v.6064c6.9091.2243 15.68 2.8467 15.68 9.7809l-.0104 3.3907c0-.5556-.0797-1.0974-.2055-1.63-.8259 3.6351-4.1138 7.5158-9.6338 10.7235l.7439.4295c11.1535-6.4815 13.46-15.6565 5.1491-20.4547z" fill="#d7d7d7"/><path d="m47.966 16.7966c0-.5945.0427.6225-.216 1.7607.1258.5326.2055 1.0743.2055 1.63z" fill="#e8e8e8"/></g></g><g><g enable-background="new"><g><path d="m39.9594 30.5939c0 .2216.0788.3776.205.4514l.3902.2268c-.1261-.0738-.205-.2299-.205-.4514-.0017-.4473.3129-.9925.702-1.2166.1958-.1128.3726-.1236.5012-.0489l-.3902-.2268c-.1286-.0747-.3054-.0639-.5012.049-.3892.2241-.7037.7692-.702 1.2165z" fill="#686868"/></g><g><path d="m41.0517 29.604c-.3889.2245-.7036.7691-.7024 1.2166.0013.4469.3181.6268.707.4023s.7031-.7688.7018-1.2156c-.0012-.4476-.3175-.6278-.7064-.4033z" fill="#4f4d4d"/></g></g></g><path d="m37.8552 24.8426-.021 9.8044c-.0105.693-.2519 1.1758-.6508 1.4065l-12.0616 7.0017c-.021-.0205-.042-.0313-.042-.0523l1.4172-.8293c.3989-.2307.6403-.7135.6508-1.4065l.0105-7.2641c.0944-.3783.063-.7668.0104-1.1758 0 0 0 0 0-.0108v-1.3537c0-.3885-.0735-.8088-.2204-1.2179.0315-.1158.0735-.2312.1365-.3362.2834-.5351.8188-.8606 1.3226-1.1963 2.7713-1.8478 4.7973-4.5978 6.9598-7.1488 1.0183.5249 1.8581 1.3855 2.2465 2.4773.1575.4406.2415.8815.2415 1.3018z" fill="#d7d7d7"/><path d="m24.4814 32.2533-.0314 9.7942c0 .3465-.0735.9344-.5879.9344-.1889 0-.4304-.0841-.6719-.2204-6.8023-3.2435-13.2792-6.9704-19.2732-11.0854 1.3825-.361 3.1225 1.2705 4.5559.5669.4409-.2102.7664-.6192 1.2177-.8191 1.4487-.6505 3.1807 1.1548 4.6188.4623.5039-.2522.8398-.7771 1.3542-.9975 1.1337-.4931 2.5193.6612 3.6321.1261.5564-.2732.8503-.8924.9868-1.4906.1365-.5459.1785-1.1128.378-1.6377l1.942 1.123c1.0077.5774 1.8789 2.0895 1.8789 3.2438z" fill="#3d3d3d"/></g></svg>