<svg id="Avatar_Flat" height="512" viewBox="0 0 128 128" width="512" xmlns="http://www.w3.org/2000/svg" data-name="Avatar Flat"><path d="m108.05 117.17c-.59.37-1.18.7-1.72 1-5.94 3.33-27.48 6.67-41.33 6.82-.34.01-.67.01-1 .01s-.66 0-1-.01c-13.85-.15-35.39-3.49-41.33-6.82-.54-.3-1.13-.63-1.72-1-3.35-2.03-6.92-5.02-3.95-9.78a59.374 59.374 0 0 1 11.12-13.55c1.04-.94 2.14-1.85 3.3-2.76 2.14-1.68 4.52-3.34 7.2-5.08h52.76c2.64 1.71 4.97 3.35 7.09 5 1.2.93 2.33 1.87 3.41 2.84a59.374 59.374 0 0 1 11.12 13.55c2.97 4.76-.6 7.75-3.95 9.78z" fill="#ebe8ef"/><path d="m30.71 99.83c.04 4.17-4.75 13.29-10.76 17.34-3.35-2.03-6.92-5.02-3.95-9.78a59.374 59.374 0 0 1 11.12-13.55 6.93 6.93 0 0 1 3.59 5.99z" fill="#5981d1"/><path d="m112 107.39c2.97 4.76-.6 7.75-3.95 9.78-6.01-4.05-10.8-13.17-10.76-17.34a6.93 6.93 0 0 1 3.59-5.99 59.374 59.374 0 0 1 11.12 13.55z" fill="#5981d1"/><path d="m64 90.75v7.14c-13.56 0-26.41-3.03-33.57-6.79l-.01-.02c2.14-1.68 4.52-3.34 7.2-5.08h.01c5.57 2.93 15.81 4.75 26.37 4.75z" fill="#b8b1c4"/><path d="m90.38 86c2.64 1.71 4.97 3.35 7.09 5-7.16 3.76-19.91 6.89-33.47 6.89v-7.14c10.56 0 20.8-1.82 26.38-4.75z" fill="#b8b1c4"/><path d="m98.25 91.61a.968.968 0 0 1 -.32.28c-8.1 4.25-21.42 7-33.93 7-12.69 0-26.05-2.71-34.04-6.9a.755.755 0 0 1 -.32-.29c.26-.21.52-.41.78-.62.28-.22.57-.44.86-.67 7.77 3.95 20.53 6.48 32.72 6.48 12 0 24.72-2.57 32.58-6.57.3.22.6.45.89.68.26.2.52.41.78.61z" fill="#fff"/><path d="m65 90.75v34.24c-.34.01-.67.01-1 .01s-.66 0-1-.01v-34.24a1 1 0 0 1 2 0z" fill="#b8b1c4"/><path d="m117.58 39.32c.34 4.52.42 11.1-.73 14.47-.57 1.68-2.74 4.27-6.9 3.72a4.963 4.963 0 0 1 .21-4.26h.01a3.3 3.3 0 0 0 3.25-2.32 70.129 70.129 0 0 0 .74-11.19 18.751 18.751 0 0 0 3.42-.42z" fill="#4b3956"/><path d="m115.39 31.21a4.347 4.347 0 0 1 2.19 8.11 4.28 4.28 0 0 1 -2.19.6 4.159 4.159 0 0 1 -1.23-.18 4.354 4.354 0 0 1 1.23-8.53z" fill="#ebe8ef"/><path d="m23.53 41.66c1.212 7.4 1.37 20.654.72 24.67-4.21 0-6.42-5.54-6.42-12.37s1.49-12.3 5.7-12.3z" fill="#5981d1"/><path d="m110.16 53.25c.01.24.01.47.01.71a26.851 26.851 0 0 1 -.22 3.55c-.64 5.1-2.75 8.82-6.2 8.82 0-6.7.333-15.41.72-24.67 4.06 0 5.59 5.09 5.69 11.59z" fill="#5981d1"/><path d="m104.47 41.66a66.413 66.413 0 0 1 .78 10.26 63.884 63.884 0 0 1 -1.5 14.41c-2.08 9.01-6.41 16-13.37 19.67-5.58 2.93-15.82 4.75-26.38 4.75s-20.8-1.82-26.37-4.75h-.01c-6.97-3.67-11.29-10.67-13.37-19.67a63.884 63.884 0 0 1 -1.5-14.41 66.413 66.413 0 0 1 .78-10.26c3.36-21.72 17.57-38.66 40.47-38.66s37.11 16.94 40.47 38.66z" fill="#ebe8ef"/><path d="m95.5 49.92c0 16.84-7.25 31.5-31.5 31.5s-31.5-14.66-31.5-31.5 12.5-29.5 31.5-29.5 31.5 12.65 31.5 29.5z" fill="#4b3956"/><circle cx="81.187" cy="33.312" fill="#fff" r="3.312"/></svg>