<svg enable-background="new 0 0 512 512" height="512" viewBox="0 0 512 512" width="512" xmlns="http://www.w3.org/2000/svg"><g id="E730_x2C__Nature_x2C__night_x2C__night_stars_x2C__planets_x2C__sky"><g><g><path d="m486 170.34-35.13 19.21-19.21 35.13-19.21-35.13-35.13-19.21 35.13-19.21 19.21-35.13 19.21 35.13z" fill="#f7d694"/><path d="m186 420.34-35.13 19.21-19.21 35.13-19.21-35.13-35.13-19.21 35.13-19.21 19.21-35.13 19.21 35.13z" fill="#f7d694"/><path d="m334.68 240.34-60.99 33.35-33.35 60.99-33.35-60.99-60.99-33.35 60.99-33.35 33.35-60.99 33.35 60.99z" fill="#fcd884"/><g fill="#ffcd02"><path d="m416 431.66-35.13 19.21-19.21 35.13-19.21-35.13-35.13-19.21 35.13-19.21 19.21-35.13 19.21 35.13z"/><path d="m134.68 80.34-35.13 19.21-19.21 35.13-19.21-35.13-35.13-19.21 35.13-19.21 19.21-35.13 19.21 35.13z"/></g></g></g></g></svg>