<svg width="36" height="37" viewBox="0 0 36 37" fill="none" xmlns="http://www.w3.org/2000/svg">
<path d="M17.9993 36.7234C16.6151 36.7234 15.2326 36.1978 14.176 35.1483L12.8619 33.8342C12.3525 33.3266 11.6703 33.0457 10.9467 33.0439H9.098C6.10989 33.0439 3.678 30.612 3.678 27.6238V25.7732C3.6762 25.0514 3.39539 24.3691 2.88597 23.8561L1.59353 22.5654C-0.523351 20.4611 -0.532351 17.021 1.57373 14.9023L2.88777 13.5864C3.39539 13.077 3.6762 12.3947 3.678 11.6711V9.82415C3.678 6.83415 6.10989 4.40219 9.098 4.40219H10.9485C11.6703 4.40219 12.3507 4.12137 12.8637 3.60833L14.158 2.31764C16.2623 0.200699 19.7004 0.189898 21.8209 2.29784L23.1349 3.61193C23.6461 4.12137 24.3266 4.40219 25.0484 4.40219H26.8989C29.887 4.40219 32.3188 6.83415 32.3188 9.82415V11.6729C32.3206 12.3947 32.6015 13.077 33.1109 13.59L34.4033 14.8825C35.4276 15.9014 35.9946 17.2587 36 18.7078C36.0036 20.1479 35.4492 21.5034 34.4393 22.5276C34.4213 22.5456 34.4051 22.5654 34.3871 22.5816L33.1091 23.8597C32.6015 24.3691 32.3206 25.0514 32.3188 25.775V27.6238C32.3188 30.612 29.887 33.0439 26.8989 33.0439H25.0484C24.3266 33.0457 23.6443 33.3266 23.1331 33.836L21.8389 35.1285C20.784 36.1906 19.3908 36.7234 17.9993 36.7234Z" fill="url(#paint0_linear_86_739)"/>
<path d="M11 18.7234L15.3346 22.7234L24 14.7234" stroke="white" stroke-width="2" stroke-linecap="round" stroke-linejoin="round"/>
<defs>
<linearGradient id="paint0_linear_86_739" x1="27.7714" y1="3.8091" x2="9.77143" y2="34.152" gradientUnits="userSpaceOnUse">
<stop stop-color="#C954E2"/>
<stop offset="0.690625" stop-color="#6C48E8"/>
<stop offset="1" stop-color="#6046E9"/>
</linearGradient>
</defs>
</svg>
