<svg width="20" height="20" viewBox="0 0 20 20" fill="none" xmlns="http://www.w3.org/2000/svg">
<path d="M9.99962 20C9.2306 20 8.46257 19.708 7.87555 19.1249L7.14552 18.3949C6.86251 18.1129 6.4835 17.9569 6.08148 17.9559H5.05444C3.39438 17.9559 2.04333 16.6048 2.04333 14.9447V13.9166C2.04233 13.5156 1.88633 13.1365 1.60332 12.8515L0.885293 12.1345C-0.29075 10.9654 -0.29575 9.05425 0.874292 7.87717L1.60432 7.14612C1.88633 6.8631 2.04233 6.48408 2.04333 6.08205V5.05598C2.04333 3.39487 3.39438 2.04378 5.05444 2.04378H6.08248C6.4835 2.04378 6.86151 1.88777 7.14652 1.60275L7.86555 0.885697C9.03459 -0.290383 10.9447 -0.296384 12.1227 0.874696L12.8527 1.60475C13.1367 1.88777 13.5148 2.04378 13.9158 2.04378H14.9438C16.6039 2.04378 17.9549 3.39487 17.9549 5.05598V6.08305C17.9559 6.48408 18.1119 6.8631 18.3949 7.14812L19.113 7.86617C19.682 8.43221 19.997 9.18626 20 9.99132C20.002 10.7914 19.694 11.5444 19.133 12.1135C19.123 12.1235 19.114 12.1345 19.104 12.1435L18.3939 12.8535C18.1119 13.1365 17.9559 13.5156 17.9549 13.9176V14.9447C17.9549 16.6048 16.6039 17.9559 14.9438 17.9559H13.9158C13.5148 17.9569 13.1357 18.1129 12.8517 18.3959L12.1327 19.1139C11.5467 19.704 10.7727 20 9.99962 20Z" fill="url(#paint0_linear_103_262)"/>
<path d="M6.11133 10.0001L8.51941 12.2223L13.3336 7.77783" stroke="white" stroke-width="2" stroke-linecap="round" stroke-linejoin="round"/>
<defs>
<linearGradient id="paint0_linear_103_262" x1="15.4286" y1="1.71429" x2="5.42857" y2="18.5714" gradientUnits="userSpaceOnUse">
<stop stop-color="#C954E2"/>
<stop offset="0.690625" stop-color="#6C48E8"/>
<stop offset="1" stop-color="#6046E9"/>
</linearGradient>
</defs>
</svg>
