<svg width="36" height="36" viewBox="0 0 36 36" fill="none" xmlns="http://www.w3.org/2000/svg">
<circle cx="18" cy="18" r="18" fill="white" fill-opacity="0.05"/>
<path opacity="0.9" d="M21.0269 18.0001L19.0043 17.3241V13.0006H19.4865C20.5714 13.0006 21.4555 13.9061 21.4555 15.0157C21.4555 15.5386 21.9109 15.9722 22.46 15.9722C23.0092 15.9722 23.4646 15.5386 23.4646 15.0157C23.4646 12.8476 21.6832 11.0876 19.4865 11.0876H19.0043V10.3479C19.0043 9.82498 18.5489 9.39136 17.9997 9.39136C17.4506 9.39136 16.9952 9.82498 16.9952 10.3479V11.0876H16.1245C14.1422 11.0876 12.5215 12.6818 12.5215 14.6331C12.5215 16.916 13.9145 17.643 14.9726 18.0001L16.9952 18.676V22.9867H16.513C15.428 22.9867 14.544 22.0812 14.544 20.9716C14.544 20.4487 14.0886 20.0151 13.5395 20.0151C12.9903 20.0151 12.5349 20.4487 12.5349 20.9716C12.5349 23.1398 14.3163 24.8998 16.513 24.8998H16.9952V25.6522C16.9952 26.1751 17.4506 26.6087 17.9997 26.6087C18.5489 26.6087 19.0043 26.1751 19.0043 25.6522V24.9125H19.8749C21.8573 24.9125 23.478 23.3183 23.478 21.367C23.4646 19.0714 22.0716 18.3444 21.0269 18.0001ZM15.6424 16.2018C14.9592 15.9722 14.544 15.7554 14.544 14.6459C14.544 13.7403 15.2539 13.0134 16.1379 13.0134H17.0086V16.6609L15.6424 16.2018ZM19.8749 22.9995H19.0043V19.3519L20.3571 19.7983C21.0402 20.0279 21.4555 20.2447 21.4555 21.3543C21.4555 22.2598 20.7456 22.9995 19.8749 22.9995Z" fill="white"/>
</svg>
