<svg width="22" height="21" viewBox="0 0 22 21" fill="none" xmlns="http://www.w3.org/2000/svg">
<path d="M10.7761 19.8374C8.49311 18.4273 6.37081 16.7645 4.44807 14.8796C3.09069 13.5338 2.05404 11.8905 1.41735 10.0753C0.279713 6.53523 1.60399 2.48948 5.30129 1.2884C7.2528 0.675531 9.37523 1.05175 11.0072 2.29983V2.29983C12.6398 1.05315 14.7616 0.677049 16.7132 1.2884C20.4105 2.48948 21.7436 6.53523 20.606 10.0753C19.9745 11.8888 18.944 13.5319 17.5931 14.8796C15.6686 16.7625 13.5465 18.4251 11.265 19.8374L11.0161 20L10.7761 19.8374Z" stroke="url(#paint0_linear_343_157)"/>
<defs>
<linearGradient id="paint0_linear_343_157" x1="16.4337" y1="2.62857" x2="7.16847" y2="19.0512" gradientUnits="userSpaceOnUse">
<stop stop-color="#C954E2"/>
<stop offset="0.690625" stop-color="#6C48E8"/>
<stop offset="1" stop-color="#6046E9"/>
</linearGradient>
</defs>
</svg>
