<svg width="112" height="20" viewBox="0 0 112 20" fill="none" xmlns="http://www.w3.org/2000/svg">
<path d="M64.6294 12.9098V13.7188H60.4805V6.26921H61.3381V12.9098H64.6294Z" fill="white"/>
<path d="M68.6344 7.0885V9.53625H72.4191V10.3558H68.6344V12.9098H73.0084V13.7188H67.7769V6.26921H72.8695V7.0885H68.6344Z" fill="white"/>
<path d="M77.3161 12.9098H79.5028C81.1753 12.9098 82.4833 11.6648 82.4833 10.0045C82.4833 8.33379 81.1542 7.0885 79.4709 7.0885H77.3161V12.9098ZM79.4926 6.26921C81.6792 6.26921 83.3517 7.87591 83.3517 9.99387C83.3517 12.1118 81.6684 13.7188 79.4601 13.7188H76.4585V6.26921H79.4926Z" fill="white"/>
<path d="M93.0063 10.0791V12.7821C92.2666 13.3674 91.2268 13.7612 90.2188 13.7612C88.043 13.7612 86.3062 12.0905 86.3062 9.99386C86.3062 7.89714 88.0538 6.24794 90.2622 6.24794C91.302 6.24794 92.3093 6.64155 93.028 7.26931L92.5342 7.90777C91.9232 7.3652 91.0981 7.04598 90.2622 7.04598C88.5463 7.04598 87.1746 8.35502 87.1746 9.99386C87.1746 11.6436 88.5572 12.9523 90.2724 12.9523C90.9477 12.9523 91.6664 12.7183 92.245 12.3245V10.0791H93.0063Z" fill="white"/>
<path d="M97.7897 7.0885V9.53625H101.574V10.3558H97.7897V12.9098H102.163V13.7188H96.9321V6.26921H102.024V7.0885H97.7897Z" fill="white"/>
<path d="M108.465 10.5473C109.827 10.5473 110.598 9.95137 110.598 8.79134C110.598 7.6632 109.827 7.0885 108.465 7.0885H106.471V10.5473H108.465ZM108.969 11.3456C108.808 11.3562 108.637 11.3669 108.465 11.3669H106.471V13.7188H105.613V6.26921H108.465C110.341 6.26921 111.424 7.18439 111.424 8.77009C111.424 10.0045 110.823 10.8347 109.741 11.1857L111.499 13.7188H110.523L108.969 11.3456Z" fill="white"/>
<path d="M6.20692 7.00359L5.5531 8.39758C4.7599 7.92939 3.81638 7.63142 3.21608 7.63142C2.64788 7.63142 2.26186 7.8335 2.26186 8.23799C2.26186 9.61073 6.26067 8.84457 6.24998 11.5263C6.24998 12.9845 4.97419 13.772 3.31265 13.772C2.07967 13.772 0.846954 13.3038 0 12.5907L0.675225 11.2177C1.44726 11.8989 2.54061 12.3352 3.33405 12.3352C4.03067 12.3352 4.4488 12.08 4.4488 11.6224C4.4488 10.2176 0.450231 11.0369 0.450231 8.39758C0.450231 7.04609 1.61874 6.19467 3.35546 6.19467C4.40599 6.19467 5.45653 6.5139 6.20692 7.00359Z" fill="white"/>
<path d="M12.8087 7.69533V13.7188H11.1148V7.69533H8.83154V6.26921H15.1027V7.69533H12.8087Z" fill="white"/>
<path d="M20.3467 8.02518L19.1567 10.9196H21.5259L20.3467 8.02518ZM18.5992 12.2714L18.0096 13.7188H16.2622L19.5214 6.26921H21.2688L24.4739 13.7188H22.6623L22.0727 12.2714H18.5992Z" fill="white"/>
<path d="M30.4936 10.1856C31.4261 10.1856 31.9622 9.75984 31.9622 8.90848C31.9622 8.07831 31.4261 7.6632 30.4936 7.6632H28.9283V10.1856H30.4936ZM30.6543 11.5902H28.9283V13.7188H27.2344V6.26921H30.4936C32.4552 6.26921 33.5703 7.20564 33.5703 8.8551C33.5703 10.0045 33.077 10.8347 32.1658 11.2604L33.7631 13.7188H31.8442L30.6543 11.5902Z" fill="white"/>
<path d="M50.259 6.80874L47.0457 9.33708L43.8315 6.80874L46.3781 9.99951L43.8315 13.1895L47.0457 10.6621L50.259 13.1895L47.7129 9.99951L50.259 6.80874Z" fill="#CDB065"/>
<path d="M48.1207 8.93229L48.1202 8.9321L47.0452 3.59775L45.9706 8.9321L40.5972 9.99921L45.9706 11.0661V11.0666L47.0452 16.4004L48.1202 11.0661L53.4936 9.99921L48.1207 8.93229Z" fill="#CDB065"/>
<path d="M47.0452 3.59806L45.9706 8.9324L40.5972 9.99951H47.0452V3.59806Z" fill="#EACC87"/>
<path d="M47.0454 16.4004L48.1203 11.0661L53.4937 9.99921H47.0454V16.4004Z" fill="#A88E4E"/>
<path d="M48.0605 -0.00119972C52.37 0.556232 55.7152 4.57856 55.7152 8.5377C55.7152 8.89077 55.6951 9.23694 55.6573 9.57565C55.6652 9.60209 55.674 9.62853 55.6819 9.65522C55.773 9.96237 55.8517 10.2717 55.9126 10.584C55.9728 10.8958 56.0209 11.2111 56.0311 11.5263C55.9626 11.2187 55.8586 10.923 55.7439 10.6329C55.6866 10.4891 55.6254 10.3468 55.5609 10.2065C55.4582 10.7612 55.3051 11.2926 55.106 11.7969C55.1314 11.9963 55.1498 12.1947 55.1622 12.3928C55.1814 12.7125 55.1879 13.0312 55.1764 13.3493C55.1642 13.6667 55.1393 13.9845 55.0778 14.2938C55.0811 13.979 55.0468 13.6677 55.0009 13.3591C54.9544 13.0522 54.8905 12.7484 54.8155 12.4494C54.5505 12.983 54.2331 13.4819 53.8678 13.939C53.867 14.0655 53.8618 14.1898 53.8521 14.3118C53.823 14.6397 53.7695 14.9575 53.7035 15.271C53.6371 15.5845 53.5584 15.8936 53.4628 16.1973C53.3665 16.5004 53.258 16.8004 53.1167 17.0825C53.2032 16.7796 53.2531 16.4703 53.2909 16.161C53.3279 15.8514 53.3474 15.5401 53.3543 15.231C53.3593 14.9972 53.3566 14.764 53.3424 14.5345C53.1097 14.7744 52.8645 15.0014 52.605 15.2122C51.7132 15.9351 51.4593 17.1806 52.0184 18.1798L52.0848 18.2986C51.2167 18.9489 49.6549 19.6867 48.0605 20C49.1823 20 50.8411 19.7327 52.3991 18.8602C55.4166 17.0791 57.4353 13.8387 57.4353 10.1358C57.4353 4.34706 53.4402 0.435865 48.0605 -0.00119972Z" fill="#CDB065"/>
<path d="M42.0722 18.1798C42.6312 17.1806 42.3771 15.9351 41.4856 15.2122C41.226 15.0014 40.9806 14.7744 40.7482 14.5345C40.7339 14.764 40.7312 14.9972 40.7359 15.231C40.7432 15.5401 40.7626 15.8514 40.7996 16.161C40.8372 16.4703 40.8872 16.7796 40.9739 17.0825C40.8323 16.8004 40.7237 16.5004 40.6277 16.1973C40.5321 15.8936 40.4535 15.5845 40.3868 15.271C40.3211 14.9575 40.2676 14.6397 40.2384 14.3118C40.2285 14.1898 40.2233 14.0655 40.2228 13.939C39.8574 13.4819 39.5401 12.983 39.275 12.4494C39.1998 12.7484 39.1361 13.0522 39.0896 13.3591C39.0435 13.6677 39.0095 13.979 39.0124 14.2938C38.9512 13.9845 38.9263 13.6667 38.9141 13.3493C38.9027 13.0312 38.9092 12.7125 38.9283 12.3928C38.9408 12.1947 38.9592 11.996 38.9845 11.7969C38.7854 11.2926 38.6324 10.7612 38.5296 10.2065C38.4651 10.3468 38.4039 10.4891 38.3464 10.6329C38.2317 10.923 38.1279 11.2187 38.0595 11.5263C38.0697 11.2111 38.1177 10.8958 38.1777 10.584C38.2389 10.2717 38.3173 9.96237 38.4086 9.65522C38.4166 9.62853 38.4253 9.60209 38.4333 9.57565C38.3952 9.23694 38.3753 8.89077 38.3753 8.5377C38.3753 4.57856 41.7203 0.556232 46.0299 -0.00119972C40.6501 0.435865 36.6553 4.34706 36.6553 10.1358C36.6553 13.8387 38.6739 17.0791 41.6914 18.8602C43.2494 19.7327 44.908 20 46.0299 20C44.4354 19.6867 42.8736 18.9489 42.0055 18.2986L42.0722 18.1798Z" fill="#CDB065"/>
<path d="M56.5597 10.2787C56.5597 13.84 54.9158 16.9977 52.3991 18.8604C55.4166 17.0792 57.4353 13.8388 57.4353 10.1359C57.4353 4.34716 53.4402 0.435963 48.0605 -0.00110435C52.8379 0.550131 56.5597 4.9347 56.5597 10.2787Z" fill="#A88E4E"/>
<path d="M41.6914 18.8604C39.1747 16.9977 37.5308 13.84 37.5308 10.2787C37.5308 4.9347 41.2526 0.550383 46.0299 -0.00110435C40.6501 0.435963 36.6553 4.34716 36.6553 10.1359C36.6553 13.8388 38.6739 17.0792 41.6914 18.8604Z" fill="#A88E4E"/>
</svg>
