<svg width="26" height="26" viewBox="0 0 26 26" fill="none" xmlns="http://www.w3.org/2000/svg">
<path d="M10.8335 20.5833C10.8335 21.775 11.8085 22.75 13.0002 22.75C14.1918 22.75 15.1668 21.775 15.1668 20.5833C15.1668 19.3917 14.1918 18.4167 13.0002 18.4167C11.8085 18.4167 10.8335 19.3917 10.8335 20.5833Z" fill="white"/>
<path d="M10.8335 5.41683C10.8335 6.6085 11.8085 7.5835 13.0002 7.5835C14.1918 7.5835 15.1668 6.6085 15.1668 5.41683C15.1668 4.22516 14.1918 3.25016 13.0002 3.25016C11.8085 3.25016 10.8335 4.22516 10.8335 5.41683Z" fill="white"/>
<path d="M10.8335 12.9998C10.8335 14.1915 11.8085 15.1665 13.0002 15.1665C14.1918 15.1665 15.1668 14.1915 15.1668 12.9998C15.1668 11.8082 14.1918 10.8332 13.0002 10.8332C11.8085 10.8332 10.8335 11.8082 10.8335 12.9998Z" fill="white"/>
</svg>
