<svg width="30" height="30" viewBox="0 0 30 30" fill="none" xmlns="http://www.w3.org/2000/svg">
<path d="M14.9996 28.4375C8.49961 28.4375 3.22461 23.15 3.22461 16.6625C3.22461 10.175 8.49961 4.875 14.9996 4.875C16.3371 4.875 17.6371 5.0625 18.8871 5.45C19.3871 5.6 19.6621 6.125 19.5121 6.625C19.3621 7.125 18.8371 7.4 18.3371 7.25C17.2746 6.925 16.1496 6.75 14.9996 6.75C9.53711 6.75 5.09961 11.1875 5.09961 16.65C5.09961 22.1125 9.53711 26.55 14.9996 26.55C20.4621 26.55 24.8996 22.1125 24.8996 16.65C24.8996 14.675 24.3246 12.775 23.2371 11.15C22.9496 10.725 23.0621 10.1375 23.4996 9.85C23.9246 9.5625 24.5121 9.675 24.7996 10.1125C26.0996 12.05 26.7871 14.3125 26.7871 16.6625C26.7746 23.15 21.4996 28.4375 14.9996 28.4375Z" fill="white"/>
<path d="M20.1626 7.58727C19.9001 7.58727 19.6376 7.47477 19.4501 7.26227L15.8376 3.11227C15.5001 2.72477 15.5376 2.12477 15.9251 1.78727C16.3126 1.44977 16.9126 1.48727 17.2501 1.87477L20.8626 6.02477C21.2001 6.41227 21.1626 7.01227 20.7751 7.34977C20.6126 7.51227 20.3876 7.58727 20.1626 7.58727Z" fill="white"/>
<path d="M15.9503 10.6625C15.6628 10.6625 15.3753 10.525 15.1878 10.275C14.8878 9.86251 14.9753 9.27501 15.3878 8.96251L19.6003 5.88751C20.0128 5.57501 20.6003 5.67501 20.9128 6.08751C21.2253 6.50001 21.1253 7.08751 20.7128 7.40001L16.5003 10.4875C16.3378 10.6125 16.1503 10.6625 15.9503 10.6625Z" fill="white"/>
</svg>
