<svg width="30" height="30" viewBox="0 0 30 30" fill="none" xmlns="http://www.w3.org/2000/svg">
<path d="M25.4499 15.9125C24.9874 15.9125 24.5999 15.5625 24.5499 15.1C24.2499 12.35 22.7749 9.87497 20.4999 8.29997C20.0874 8.01247 19.9874 7.44997 20.2749 7.03747C20.5624 6.62497 21.1249 6.52497 21.5374 6.81247C24.2499 8.69997 25.9999 11.65 26.3624 14.9125C26.4124 15.4125 26.0499 15.8625 25.5499 15.9125C25.5124 15.9125 25.4874 15.9125 25.4499 15.9125Z" fill="white"/>
<path d="M4.67512 15.975C4.65012 15.975 4.61262 15.975 4.58762 15.975C4.08762 15.925 3.72512 15.475 3.77512 14.975C4.11262 11.7125 5.83762 8.76251 8.52512 6.86251C8.92512 6.57501 9.50012 6.67501 9.78762 7.07501C10.0751 7.48751 9.97512 8.05001 9.57512 8.33751C7.32512 9.93751 5.86262 12.4125 5.58762 15.15C5.53762 15.625 5.13762 15.975 4.67512 15.975Z" fill="white"/>
<path d="M19.9873 26.3749C18.4498 27.1124 16.7998 27.4874 15.0748 27.4874C13.2748 27.4874 11.5623 27.0874 9.96226 26.2749C9.51226 26.0624 9.33726 25.5124 9.56226 25.0624C9.77476 24.6124 10.3248 24.4374 10.7748 24.6499C11.5623 25.0499 12.3998 25.3249 13.2498 25.4874C14.3998 25.7124 15.5748 25.7249 16.7248 25.5249C17.5748 25.3749 18.4123 25.1124 19.1873 24.7374C19.6498 24.5249 20.1998 24.6999 20.3998 25.1624C20.6248 25.6124 20.4498 26.1624 19.9873 26.3749Z" fill="white"/>
<path d="M15.0626 2.5127C13.1251 2.5127 11.5376 4.0877 11.5376 6.0377C11.5376 7.9877 13.1126 9.5627 15.0626 9.5627C17.0126 9.5627 18.5876 7.9877 18.5876 6.0377C18.5876 4.0877 17.0126 2.5127 15.0626 2.5127Z" fill="white"/>
<path d="M6.3126 17.3374C4.3751 17.3374 2.7876 18.9124 2.7876 20.8624C2.7876 22.8124 4.3626 24.3874 6.3126 24.3874C8.2626 24.3874 9.8376 22.8124 9.8376 20.8624C9.8376 18.9124 8.2501 17.3374 6.3126 17.3374Z" fill="white"/>
<path d="M23.6876 17.3374C21.7501 17.3374 20.1626 18.9124 20.1626 20.8624C20.1626 22.8124 21.7376 24.3874 23.6876 24.3874C25.6376 24.3874 27.2126 22.8124 27.2126 20.8624C27.2126 18.9124 25.6376 17.3374 23.6876 17.3374Z" fill="white"/>
</svg>
