<svg width="12" height="12" viewBox="0 0 12 12" fill="none" xmlns="http://www.w3.org/2000/svg">
<path d="M8.8757 3.52498C8.7557 3.50498 8.6307 3.49999 8.5007 3.49999H3.5007C3.3607 3.49999 3.2257 3.50999 3.0957 3.52999C3.1657 3.38999 3.2657 3.26 3.3857 3.14L5.0107 1.51C5.6957 0.83 6.8057 0.83 7.4907 1.51L8.3657 2.39498C8.6857 2.70998 8.8557 3.10998 8.8757 3.52498Z" stroke="white" stroke-linecap="round" stroke-linejoin="round"/>
<path d="M4.5 9.5C4.5 9.875 4.395 10.23 4.21 10.53C3.865 11.11 3.23 11.5 2.5 11.5C1.77 11.5 1.135 11.11 0.79 10.53C0.605 10.23 0.5 9.875 0.5 9.5C0.5 8.395 1.395 7.5 2.5 7.5C3.605 7.5 4.5 8.395 4.5 9.5Z" stroke="white" stroke-miterlimit="10" stroke-linecap="round" stroke-linejoin="round"/>
<path d="M3.24586 9.48975H1.75586" stroke="white" stroke-miterlimit="10" stroke-linecap="round" stroke-linejoin="round"/>
<path d="M2.5 8.75977V10.2548" stroke="white" stroke-miterlimit="10" stroke-linecap="round" stroke-linejoin="round"/>
<path d="M11 6V8.5C11 10 10 11 8.5 11H3.815C3.97 10.87 4.105 10.71 4.21 10.53C4.395 10.23 4.5 9.875 4.5 9.5C4.5 8.395 3.605 7.5 2.5 7.5C1.9 7.5 1.365 7.76499 1 8.17999V6C1 4.64 1.82 3.69 3.095 3.53C3.225 3.51 3.36 3.5 3.5 3.5H8.5C8.63 3.5 8.755 3.50499 8.875 3.52499C10.165 3.67499 11 4.63 11 6Z" stroke="white" stroke-linecap="round" stroke-linejoin="round"/>
<path d="M11 6.25H9.5C8.95 6.25 8.5 6.7 8.5 7.25C8.5 7.8 8.95 8.25 9.5 8.25H11" stroke="white" stroke-linecap="round" stroke-linejoin="round"/>
</svg>
