<svg width="287" height="52" viewBox="0 0 287 52" fill="none" xmlns="http://www.w3.org/2000/svg">
<g clip-path="url(#clip0_2_981)">
<path d="M166.217 33.3394V35.464H155.594V16.1794H157.718V33.3394H166.217Z" fill="#090A0F"/>
<path d="M176.513 18.304V24.6777H186.155V26.8023H176.513V33.3394H187.789V35.464H174.388V16.1794H187.462V18.304H176.513Z" fill="#090A0F"/>
<path d="M204.459 16.1794C210.015 16.1794 214.428 20.2652 214.428 25.8217C214.428 31.3783 210.179 35.464 204.459 35.464H196.614V16.1794H204.459ZM198.739 33.3394H204.295C208.545 33.3394 211.977 30.0709 211.977 25.8217C211.977 21.5726 208.545 18.304 204.295 18.304H198.739V33.3394Z" fill="#090A0F"/>
<path d="M239.106 25.9851V33.0126C237.145 34.4834 234.53 35.464 231.915 35.464C226.358 35.464 221.946 31.2148 221.946 25.6583C221.946 20.1017 226.358 16.016 232.078 16.016C234.693 16.016 237.308 16.9966 239.106 18.6308L237.798 20.2651C236.164 18.7943 234.039 17.9771 231.915 17.9771C227.502 17.9771 224.07 21.4091 224.07 25.6583C224.07 29.9074 227.666 33.3394 232.078 33.3394C233.876 33.3394 235.674 32.6857 237.145 31.7051V25.8217H239.106V25.9851Z" fill="#090A0F"/>
<path d="M251.363 18.304V24.6777H261.005V26.8023H251.363V33.3394H262.639V35.464H249.238V16.1794H262.313V18.304H251.363Z" fill="#090A0F"/>
<path d="M279.963 29.2537C279.473 29.2537 279.146 29.2537 278.655 29.2537H273.589V35.3006H271.465V16.1794H278.819C283.558 16.1794 286.337 18.4674 286.337 22.7166C286.337 25.9852 284.866 28.1097 282.087 28.9269L286.663 35.464H284.212L279.963 29.2537ZM278.655 27.2926C282.087 27.2926 284.049 25.8217 284.049 22.7166C284.049 19.7749 282.087 18.304 278.655 18.304H273.589V27.2926H278.655Z" fill="#090A0F"/>
<path d="M16.3526 18.1406L14.7183 21.736C12.7571 20.4286 10.3057 19.7748 8.67143 19.7748C7.20057 19.7748 6.22 20.2651 6.22 21.4091C6.22 25.0046 16.516 23.0434 16.516 29.9074C16.516 33.6663 13.2474 35.7908 8.99829 35.7908C5.89314 35.7908 2.62457 34.6468 0.5 32.6857L2.29771 29.0903C4.25886 30.888 7.03714 32.032 9.16172 32.032C10.9594 32.032 11.94 31.3783 11.94 30.2343C11.94 26.6388 1.644 28.7634 1.644 21.8994C1.644 18.4674 4.58571 16.1794 9.16172 16.1794C11.7766 16.016 14.5549 16.8331 16.3526 18.1406Z" fill="#090A0F"/>
<path d="M33.3491 19.9383V35.464H28.9366V19.9383H23.0531V16.1794H39.0691V19.9383H33.3491Z" fill="#090A0F"/>
<path d="M48.2211 31.7052L46.7503 35.464H42.3377L50.6726 16.1794H55.0851L63.2566 35.464H58.6806L57.2097 31.7052H48.2211ZM52.6337 20.7554L49.5286 28.2732H55.5754L52.6337 20.7554Z" fill="#090A0F"/>
<path d="M79.1091 29.9074H78.6189H74.5331V35.464H70.1206V16.1794H78.4554C83.5217 16.1794 86.3 18.6309 86.3 22.88C86.3 25.8217 84.9926 27.9463 82.7046 29.0903L86.7903 35.464H81.8874L79.1091 29.9074ZM78.7823 26.312C81.2337 26.312 82.5412 25.168 82.5412 23.0434C82.5412 20.9189 81.2337 19.7749 78.7823 19.7749H74.6966V26.312H78.7823Z" fill="#090A0F"/>
<path d="M129.445 17.6503L121.11 24.1874L112.939 17.6503L119.476 25.8217L112.939 34.1566L121.11 27.6194L129.445 34.1566L122.908 25.8217L129.445 17.6503Z" fill="#CDAC5A"/>
<path d="M123.889 23.0434L121.11 9.31543L118.495 23.0434L104.604 25.8217L118.495 28.6L121.11 42.328L123.889 28.6L137.78 25.8217L123.889 23.0434Z" fill="#CDAC5A"/>
<path d="M121.11 9.31543L118.495 23.0434L104.604 25.8217H121.11V9.31543Z" fill="#EBCD81"/>
<path d="M121.11 42.328L123.889 28.6L137.78 25.8217H121.11V42.328Z" fill="#A5843F"/>
<path d="M123.725 0C134.838 1.47086 143.337 11.7669 143.337 22.0629C143.337 23.0434 143.337 23.8606 143.173 24.6777V24.8411C143.337 25.6583 143.663 26.4754 143.827 27.2926C143.99 28.1097 144.154 28.9269 144.154 29.744C143.99 28.9269 143.663 28.1097 143.337 27.456C143.173 27.1291 143.01 26.6389 142.846 26.312C142.519 27.7829 142.193 29.0903 141.702 30.3977C141.702 30.888 141.866 31.3783 141.866 31.8686C141.866 32.6857 141.866 33.5029 141.866 34.32C141.866 35.1371 141.702 35.9543 141.539 36.7714C141.539 35.9543 141.539 35.1371 141.375 34.32C141.212 33.5029 141.049 32.6857 140.885 32.032C140.231 33.3394 139.414 34.6469 138.434 35.9543C138.434 36.2811 138.434 36.608 138.434 36.9349C138.434 37.752 138.27 38.5691 138.107 39.3863C137.943 40.2034 137.78 41.0206 137.453 41.8377C137.126 42.6549 136.963 43.472 136.636 44.1257C136.799 43.3086 136.963 42.4914 137.126 41.6743C137.29 40.8571 137.29 40.04 137.29 39.2229C137.29 38.5691 137.29 38.0789 137.29 37.4251C136.636 38.0789 135.982 38.5691 135.329 39.2229C133.041 41.0206 132.387 44.2891 133.858 46.904L134.021 47.2309C131.733 48.8651 127.811 50.8263 123.725 51.6434C126.667 51.6434 130.916 50.9897 134.838 48.7017C142.683 44.1257 147.749 35.7909 147.749 26.1486C147.749 11.2766 137.617 1.144 123.725 0Z" fill="#CDAC5A"/>
<path d="M108.363 46.904C109.834 44.2891 109.18 41.184 106.892 39.2229C106.238 38.7326 105.585 38.0789 104.931 37.4251C104.931 38.0789 104.931 38.5691 104.931 39.2229C104.931 40.04 104.931 40.8571 105.094 41.6743C105.258 42.4914 105.258 43.3086 105.585 44.1257C105.258 43.472 104.931 42.6549 104.767 41.8377C104.604 41.0206 104.277 40.2034 104.114 39.3863C103.95 38.5691 103.787 37.752 103.787 36.9349C103.787 36.608 103.787 36.2811 103.787 35.9543C102.806 34.8103 101.989 33.5029 101.335 32.032C101.172 32.8491 101.009 33.6663 100.845 34.32C100.682 35.1371 100.682 35.9543 100.682 36.7714C100.518 35.9543 100.518 35.1371 100.355 34.32C100.355 33.5029 100.355 32.6857 100.355 31.8686C100.355 31.3783 100.355 30.888 100.518 30.3977C100.028 29.0903 99.5377 27.7829 99.3743 26.312C99.2109 26.6389 99.0474 26.9657 98.884 27.456C98.5572 28.2731 98.3937 28.9269 98.0669 29.744C98.0669 28.9269 98.2303 28.1097 98.3937 27.2926C98.5572 26.4754 98.7206 25.6583 99.0474 24.8411V24.6777C98.884 23.8606 98.884 22.88 98.884 22.0629C98.884 11.7669 107.546 1.47086 118.495 0C104.767 1.144 94.4714 11.2766 94.4714 26.1486C94.4714 35.7909 99.7012 44.1257 107.382 48.7017C111.305 50.9897 115.554 51.6434 118.495 51.6434C114.41 50.8263 110.324 48.8651 108.199 47.2309L108.363 46.904Z" fill="#CDAC5A"/>
<path d="M145.625 26.6389C145.625 35.7909 141.375 43.9623 135.002 48.8651C142.683 44.1257 147.749 35.7909 147.749 26.1486C147.749 11.1131 137.453 1.144 123.725 0C135.982 1.47086 145.625 12.7474 145.625 26.6389Z" fill="#A5843F"/>
<path d="M107.382 48.7017C101.009 43.9623 96.7594 35.7908 96.7594 26.4754C96.7594 12.7474 106.238 1.3074 118.495 -0.163452C104.767 0.980548 94.4714 11.1131 94.4714 25.9851C94.4714 35.7908 99.7012 44.1257 107.382 48.7017Z" fill="#A5843F"/>
</g>
<defs>
<clipPath id="clip0_2_981">
<rect width="286" height="51.6434" fill="white" transform="translate(0.5)"/>
</clipPath>
</defs>
</svg>
