<svg width="160" height="155" viewBox="0 0 160 155" fill="none" xmlns="http://www.w3.org/2000/svg">
<path d="M104.512 52.5284L80.0027 72.0282L55.4874 52.5284L74.9121 77.1385L55.4874 101.743L80.0027 82.2488L104.512 101.743L85.0934 77.1385L104.512 52.5284Z" fill="#CDAC5A"/>
<path d="M88.2014 68.9065L88.1979 68.9059L79.9999 27.762L71.8018 68.9059L30.8164 77.1356L71.8018 85.3654L71.8025 85.3689L79.9999 126.509L88.1979 85.3654L129.183 77.1356L88.2014 68.9065Z" fill="#CDAC5A"/>
<path d="M79.9999 27.762L71.8018 68.9059L30.8164 77.1356H79.9999V27.762Z" fill="#EBCD81"/>
<path d="M79.9999 126.509L88.1979 85.3654L129.183 77.1356H79.9999V126.509Z" fill="#A5843F"/>
<path d="M87.7447 0.000321524C120.616 4.29975 146.13 35.3243 146.13 65.8623C146.13 68.5857 145.978 71.255 145.687 73.8673C145.749 74.0718 145.816 74.2757 145.876 74.4808C146.572 76.8508 147.171 79.2352 147.637 81.644C148.096 84.0507 148.461 86.4823 148.54 88.9127C148.017 86.5405 147.225 84.26 146.35 82.0218C145.913 80.9123 145.445 79.8165 144.953 78.7336C144.169 83.0105 143.002 87.1096 141.483 91.0007C141.677 92.5373 141.817 94.0684 141.912 95.5966C142.058 98.063 142.107 100.522 142.02 102.974C141.928 105.422 141.738 107.874 141.27 110.26C141.293 107.83 141.032 105.429 140.682 103.05C140.327 100.683 139.84 98.3392 139.268 96.0335C137.245 100.149 134.825 103.996 132.039 107.523C132.034 108.499 131.994 109.458 131.919 110.399C131.696 112.927 131.288 115.377 130.787 117.797C130.279 120.214 129.679 122.599 128.95 124.941C128.216 127.277 127.388 129.592 126.309 131.769C126.97 129.432 127.351 127.047 127.639 124.66C127.921 122.272 128.069 119.872 128.123 117.486C128.16 115.684 128.14 113.884 128.031 112.115C126.258 113.966 124.386 115.717 122.406 117.341C115.605 122.917 113.668 132.525 117.932 140.23L118.439 141.147C111.818 146.164 99.9063 151.853 87.7444 154.27C96.3008 154.27 108.952 152.208 120.836 145.479C143.852 131.741 159.25 106.747 159.25 78.1867C159.25 33.5398 128.778 3.37118 87.7444 0L87.7447 0.000321524Z" fill="#CDAC5A"/>
<path d="M42.0682 140.231C46.3321 132.525 44.3947 122.918 37.5944 117.341C35.6144 115.718 33.743 113.966 31.9695 112.115C31.8606 113.885 31.8405 115.685 31.877 117.486C31.9314 119.872 32.0797 122.272 32.3616 124.66C32.6495 127.047 33.0303 129.432 33.6917 131.769C32.612 129.592 31.7841 127.277 31.0503 124.941C30.3213 122.599 29.7215 120.215 29.2135 117.797C28.7119 115.377 28.3039 112.927 28.0816 110.399C28.006 109.458 27.9666 108.499 27.9612 107.523C25.175 103.997 22.7549 100.149 20.7323 96.0336C20.16 98.3393 19.6738 100.683 19.3186 103.051C18.9682 105.429 18.7075 107.83 18.7305 110.26C18.2619 107.874 18.0726 105.422 17.9801 102.974C17.8933 100.522 17.9423 98.0631 18.0883 95.5967C18.1831 94.0682 18.3234 92.5374 18.5175 91.0008C16.9984 87.1101 15.8316 83.0109 15.0469 78.7337C14.5549 79.8163 14.0873 80.9124 13.6501 82.0219C12.7751 84.2604 11.9827 86.541 11.4603 88.9128C11.5391 86.4824 11.9043 84.0508 12.3635 81.6441C12.8289 79.2356 13.4282 76.8512 14.1238 74.4809C14.1847 74.2761 14.2507 74.0722 14.3128 73.8678C14.0226 71.2554 13.8699 68.5858 13.8699 65.8624C13.8699 35.3244 39.3848 4.29985 72.2558 0.000427246C31.222 3.37161 0.75061 33.5402 0.75061 78.1871C0.75061 106.748 16.1477 131.741 39.1641 145.479C51.0477 152.209 63.6993 154.271 72.2558 154.271C60.0942 151.853 48.1821 146.165 41.5608 141.147L42.0682 140.231Z" fill="#CDAC5A"/>
<path d="M152.571 79.2892C152.571 106.758 140.032 131.112 120.836 145.479C143.852 131.741 159.25 106.748 159.25 78.187C159.25 33.5398 128.778 3.37152 87.7444 0.000335693C124.183 4.25314 152.571 38.0707 152.571 79.2892Z" fill="#A5843F"/>
<path d="M39.1637 145.479C19.968 131.113 7.42943 106.758 7.42943 79.2893C7.42943 38.0712 35.817 4.25355 72.2553 0.000427246C31.2216 3.37161 0.750183 33.5402 0.750183 78.1871C0.750183 106.748 16.1473 131.741 39.1634 145.479H39.1637Z" fill="#A5843F"/>
</svg>
