<svg width="265" height="206" viewBox="0 0 265 206" fill="none" xmlns="http://www.w3.org/2000/svg">
<g clip-path="url(#clip0_3_677)">
<path d="M19.091 185.5L17.1325 189.722C14.7566 188.304 11.931 187.401 10.1326 187.401C8.43093 187.401 7.27501 188.014 7.27501 189.239C7.27501 193.397 19.2518 191.076 19.2194 199.198C19.2194 203.615 15.3984 206 10.4215 206C6.72892 206 3.03635 204.581 0.49968 202.422L2.52229 198.264C4.83411 200.327 8.10936 201.648 10.4852 201.648C12.5722 201.648 13.8245 200.875 13.8245 199.489C13.8245 195.234 1.84776 197.716 1.84776 189.723C1.84776 185.629 5.34785 183.05 10.5493 183.05C13.6958 183.05 16.8426 184.017 19.09 185.5H19.091Z" fill="#090A0F"/>
<path d="M38.8645 187.595V205.839H33.7912V187.595H26.9521V183.276H45.7359V187.595H38.8645V187.595Z" fill="#090A0F"/>
<path d="M56.2077 201.455L54.4416 205.839H49.2078L58.9689 183.276H64.2027L73.8032 205.839H68.3766L66.6106 201.455H56.2071H56.2077ZM61.4415 188.594L57.8773 197.362H64.9733L61.4412 188.594H61.4415Z" fill="#090A0F"/>
<path d="M92.3145 199.392H87.1451V205.839H82.0721V183.276H91.8331C97.7091 183.276 101.048 186.112 101.048 191.109C101.048 194.59 99.5712 197.104 96.8421 198.393L101.626 205.839H95.8787L92.3145 199.392V199.392ZM91.8328 195.138C94.6263 195.138 96.2319 193.848 96.2319 191.27C96.2319 188.755 94.6263 187.498 91.8328 187.498H87.1448V195.138H91.8328Z" fill="#090A0F"/>
<path d="M124.116 203.389V205.839H111.69V183.276H114.259V203.389H124.116V203.389Z" fill="#090A0F"/>
<path d="M136.114 185.758V193.171H147.448V195.653H136.114V203.389H149.214V205.838H133.545V183.275H148.797V185.757H136.113L136.114 185.758Z" fill="#090A0F"/>
<path d="M168.634 183.276C175.184 183.276 180.193 188.143 180.193 194.558C180.193 200.972 175.152 205.839 168.538 205.839H159.547V183.276H168.634V183.276ZM162.116 203.39H168.666C173.675 203.39 177.593 199.618 177.593 194.59C177.593 189.529 173.611 185.758 168.57 185.758H162.116V203.39Z" fill="#090A0F"/>
<path d="M209.111 194.815V203.002C206.895 204.775 203.781 205.968 200.762 205.968C194.244 205.968 189.043 200.907 189.043 194.557C189.043 188.207 194.277 183.211 200.891 183.211C204.006 183.211 207.024 184.404 209.175 186.306L207.698 188.24C205.868 186.596 203.395 185.629 200.891 185.629C195.753 185.629 191.644 189.594 191.644 194.558C191.644 199.554 195.785 203.518 200.923 203.518C202.946 203.518 205.097 202.81 206.831 201.617V194.816H209.111V194.815Z" fill="#090A0F"/>
<path d="M223.438 185.758V193.171H234.773V195.653H223.438V203.389H236.539V205.838H220.87V183.275H236.121V185.757H223.438L223.438 185.758Z" fill="#090A0F"/>
<path d="M256.922 198.651C256.441 198.683 255.927 198.715 255.413 198.715H249.441V205.839H246.872V183.276H255.413C261.032 183.276 264.275 186.047 264.275 190.85C264.275 194.589 262.477 197.103 259.234 198.167L264.5 205.839H261.578L256.922 198.651V198.651ZM255.413 196.233C259.491 196.233 261.803 194.428 261.803 190.915C261.803 187.498 259.491 185.758 255.413 185.758H249.441V196.233H255.413Z" fill="#090A0F"/>
<path d="M157.012 52.5281L132.503 72.0279L107.987 52.5281L127.412 77.1382L107.987 101.743L132.503 82.2485L157.012 101.743L137.593 77.1382L157.012 52.5281Z" fill="#CDAC5A"/>
<path d="M140.701 68.9062L140.698 68.9056L132.5 27.7617L124.302 68.9056L83.3164 77.1353L124.302 85.365L124.302 85.3686L132.5 126.509L140.698 85.365L181.683 77.1353L140.701 68.9062Z" fill="#CDAC5A"/>
<path d="M132.5 27.7617L124.302 68.9056L83.3164 77.1353H132.5V27.7617Z" fill="#EBCD81"/>
<path d="M132.5 126.509L140.698 85.365L181.683 77.1353H132.5V126.509Z" fill="#A5843F"/>
<path d="M140.245 1.08982e-06C173.116 4.29943 198.63 35.324 198.63 65.862C198.63 68.5853 198.477 71.2546 198.187 73.867C198.249 74.0715 198.316 74.2754 198.376 74.4805C199.072 76.8504 199.671 79.2349 200.137 81.6437C200.596 84.0503 200.961 86.482 201.04 88.9124C200.517 86.5402 199.725 84.2597 198.85 82.0215C198.413 80.9119 197.945 79.8162 197.453 78.7333C196.669 83.0102 195.502 87.1093 193.983 91.0004C194.177 92.537 194.317 94.0681 194.412 95.5963C194.558 98.0627 194.607 100.521 194.52 102.973C194.427 105.422 194.238 107.874 193.77 110.259C193.793 107.83 193.532 105.429 193.182 103.05C192.827 100.682 192.34 98.3389 191.768 96.0332C189.745 100.148 187.325 103.996 184.539 107.522C184.534 108.499 184.494 109.457 184.419 110.399C184.196 112.926 183.788 115.377 183.287 117.797C182.779 120.214 182.179 122.599 181.45 124.94C180.716 127.277 179.888 129.592 178.809 131.768C179.47 129.432 179.851 127.047 180.139 124.66C180.421 122.271 180.569 119.871 180.623 117.486C180.66 115.684 180.64 113.884 180.531 112.115C178.757 113.965 176.886 115.717 174.906 117.341C168.105 122.917 166.168 132.524 170.432 140.23L170.939 141.147C164.318 146.164 152.406 151.853 140.244 154.27C148.801 154.27 161.452 152.208 173.336 145.479C196.352 131.74 211.75 106.747 211.75 78.1864C211.75 33.5395 181.278 3.37086 140.244 -0.000320435L140.245 1.08982e-06Z" fill="#CDAC5A"/>
<path d="M94.5681 140.23C98.8321 132.525 96.8947 122.918 90.0944 117.341C88.1144 115.717 86.2429 113.966 84.4695 112.115C84.3606 113.884 84.3404 115.684 84.377 117.486C84.4314 119.871 84.5797 122.271 84.8615 124.66C85.1495 127.047 85.5303 129.432 86.1917 131.769C85.112 129.592 84.2841 127.277 83.5503 124.94C82.8213 122.598 82.2214 120.214 81.7134 117.797C81.2119 115.377 80.8038 112.926 80.5816 110.399C80.506 109.457 80.4666 108.499 80.4611 107.522C77.675 103.996 75.2549 100.149 73.2323 96.0333C72.6599 98.339 72.1737 100.683 71.8185 103.05C71.4681 105.429 71.2074 107.83 71.2305 110.259C70.7619 107.874 70.5726 105.422 70.4801 102.973C70.3933 100.521 70.4423 98.0628 70.5883 95.5964C70.6831 94.0678 70.8234 92.5371 71.0175 91.0005C69.4984 87.1097 68.3316 83.0106 67.5469 78.7334C67.0549 79.816 66.5873 80.912 66.1501 82.0216C65.2751 84.2601 64.4827 86.5406 63.9603 88.9125C64.0391 86.4821 64.4042 84.0504 64.8635 81.6438C65.3289 79.2353 65.9281 76.8509 66.6238 74.4806C66.6847 74.2758 66.7506 74.0719 66.8128 73.8674C66.5226 71.255 66.3698 68.5854 66.3698 65.8621C66.3698 35.3241 91.8848 4.29953 124.756 0.000106812C83.722 3.37129 53.2506 33.5399 53.2506 78.1868C53.2506 106.748 68.6477 131.741 91.6641 145.479C103.548 152.208 116.199 154.27 124.756 154.27C112.594 151.853 100.682 146.164 94.0608 141.147L94.5681 140.23Z" fill="#CDAC5A"/>
<path d="M205.071 79.2889C205.071 106.758 192.532 131.112 173.336 145.479C196.352 131.741 211.75 106.747 211.75 78.1867C211.75 33.5395 181.278 3.37118 140.244 0C176.683 4.2528 205.071 38.0704 205.071 79.2889Z" fill="#A5843F"/>
<path d="M91.6637 145.479C72.468 131.112 59.9294 106.758 59.9294 79.289C59.9294 38.0708 88.317 4.25323 124.755 0.000106812C83.7215 3.37129 53.2502 33.5399 53.2502 78.1868C53.2502 106.748 68.6473 131.741 91.6634 145.479H91.6637Z" fill="#A5843F"/>
</g>
<defs>
<clipPath id="clip0_3_677">
<rect width="264" height="206" fill="white" transform="translate(0.5)"/>
</clipPath>
</defs>
</svg>
