<svg width="286" height="52" viewBox="0 0 286 52" fill="none" xmlns="http://www.w3.org/2000/svg">
<g clip-path="url(#clip0_2_867)">
<path d="M165.717 33.3394V35.464H155.094V16.1794H157.218V33.3394H165.717Z" fill="#EDEDEC"/>
<path d="M176.013 18.304V24.6777H185.655V26.8023H176.013V33.3394H187.289V35.464H173.888V16.1794H186.962V18.304H176.013Z" fill="#EDEDEC"/>
<path d="M203.959 16.1794C209.515 16.1794 213.928 20.2652 213.928 25.8217C213.928 31.3783 209.679 35.464 203.959 35.464H196.114V16.1794H203.959ZM198.239 33.3394H203.795C208.045 33.3394 211.477 30.0709 211.477 25.8217C211.477 21.5726 208.045 18.304 203.795 18.304H198.239V33.3394Z" fill="#EDEDEC"/>
<path d="M238.606 25.9851V33.0126C236.645 34.4834 234.03 35.464 231.415 35.464C225.858 35.464 221.446 31.2148 221.446 25.6583C221.446 20.1017 225.858 16.016 231.578 16.016C234.193 16.016 236.808 16.9966 238.606 18.6308L237.298 20.2651C235.664 18.7943 233.539 17.9771 231.415 17.9771C227.002 17.9771 223.57 21.4091 223.57 25.6583C223.57 29.9074 227.166 33.3394 231.578 33.3394C233.376 33.3394 235.174 32.6857 236.645 31.7051V25.8217H238.606V25.9851Z" fill="#EDEDEC"/>
<path d="M250.863 18.304V24.6777H260.505V26.8023H250.863V33.3394H262.139V35.464H248.738V16.1794H261.813V18.304H250.863Z" fill="#EDEDEC"/>
<path d="M279.463 29.2537C278.973 29.2537 278.646 29.2537 278.155 29.2537H273.089V35.3006H270.965V16.1794H278.319C283.058 16.1794 285.837 18.4674 285.837 22.7166C285.837 25.9852 284.366 28.1097 281.587 28.9269L286.163 35.464H283.712L279.463 29.2537ZM278.155 27.2926C281.587 27.2926 283.549 25.8217 283.549 22.7166C283.549 19.7749 281.587 18.304 278.155 18.304H273.089V27.2926H278.155Z" fill="#EDEDEC"/>
<path d="M15.8526 18.1406L14.2183 21.736C12.2571 20.4286 9.80571 19.7748 8.17143 19.7748C6.70057 19.7748 5.72 20.2651 5.72 21.4091C5.72 25.0046 16.016 23.0434 16.016 29.9074C16.016 33.6663 12.7474 35.7908 8.49829 35.7908C5.39314 35.7908 2.12457 34.6468 0 32.6857L1.79771 29.0903C3.75886 30.888 6.53714 32.032 8.66172 32.032C10.4594 32.032 11.44 31.3783 11.44 30.2343C11.44 26.6388 1.144 28.7634 1.144 21.8994C1.144 18.4674 4.08571 16.1794 8.66172 16.1794C11.2766 16.016 14.0549 16.8331 15.8526 18.1406Z" fill="#EDEDEC"/>
<path d="M32.8491 19.9383V35.464H28.4366V19.9383H22.5531V16.1794H38.5691V19.9383H32.8491Z" fill="#EDEDEC"/>
<path d="M47.7211 31.7052L46.2503 35.464H41.8377L50.1726 16.1794H54.5851L62.7566 35.464H58.1806L56.7097 31.7052H47.7211ZM52.1337 20.7554L49.0286 28.2732H55.0754L52.1337 20.7554Z" fill="#EDEDEC"/>
<path d="M78.6091 29.9074H78.1189H74.0331V35.464H69.6206V16.1794H77.9554C83.0217 16.1794 85.8 18.6309 85.8 22.88C85.8 25.8217 84.4926 27.9463 82.2046 29.0903L86.2903 35.464H81.3874L78.6091 29.9074ZM78.2823 26.312C80.7337 26.312 82.0412 25.168 82.0412 23.0434C82.0412 20.9189 80.7337 19.7749 78.2823 19.7749H74.1966V26.312H78.2823Z" fill="#EDEDEC"/>
<path d="M128.945 17.6503L120.61 24.1874L112.439 17.6503L118.976 25.8217L112.439 34.1566L120.61 27.6194L128.945 34.1566L122.408 25.8217L128.945 17.6503Z" fill="#CDAC5A"/>
<path d="M123.389 23.0434L120.61 9.31543L117.995 23.0434L104.104 25.8217L117.995 28.6L120.61 42.328L123.389 28.6L137.28 25.8217L123.389 23.0434Z" fill="#CDAC5A"/>
<path d="M120.61 9.31543L117.995 23.0434L104.104 25.8217H120.61V9.31543Z" fill="#EBCD81"/>
<path d="M120.61 42.328L123.389 28.6L137.28 25.8217H120.61V42.328Z" fill="#A5843F"/>
<path d="M123.225 0C134.338 1.47086 142.837 11.7669 142.837 22.0629C142.837 23.0434 142.837 23.8606 142.673 24.6777V24.8411C142.837 25.6583 143.163 26.4754 143.327 27.2926C143.49 28.1097 143.654 28.9269 143.654 29.744C143.49 28.9269 143.163 28.1097 142.837 27.456C142.673 27.1291 142.51 26.6389 142.346 26.312C142.019 27.7829 141.693 29.0903 141.202 30.3977C141.202 30.888 141.366 31.3783 141.366 31.8686C141.366 32.6857 141.366 33.5029 141.366 34.32C141.366 35.1371 141.202 35.9543 141.039 36.7714C141.039 35.9543 141.039 35.1371 140.875 34.32C140.712 33.5029 140.549 32.6857 140.385 32.032C139.731 33.3394 138.914 34.6469 137.934 35.9543C137.934 36.2811 137.934 36.608 137.934 36.9349C137.934 37.752 137.77 38.5691 137.607 39.3863C137.443 40.2034 137.28 41.0206 136.953 41.8377C136.626 42.6549 136.463 43.472 136.136 44.1257C136.299 43.3086 136.463 42.4914 136.626 41.6743C136.79 40.8571 136.79 40.04 136.79 39.2229C136.79 38.5691 136.79 38.0789 136.79 37.4251C136.136 38.0789 135.482 38.5691 134.829 39.2229C132.541 41.0206 131.887 44.2891 133.358 46.904L133.521 47.2309C131.233 48.8651 127.311 50.8263 123.225 51.6434C126.167 51.6434 130.416 50.9897 134.338 48.7017C142.183 44.1257 147.249 35.7909 147.249 26.1486C147.249 11.2766 137.117 1.144 123.225 0Z" fill="#CDAC5A"/>
<path d="M107.863 46.904C109.334 44.2891 108.68 41.184 106.392 39.2229C105.738 38.7326 105.085 38.0789 104.431 37.4251C104.431 38.0789 104.431 38.5691 104.431 39.2229C104.431 40.04 104.431 40.8571 104.594 41.6743C104.758 42.4914 104.758 43.3086 105.085 44.1257C104.758 43.472 104.431 42.6549 104.267 41.8377C104.104 41.0206 103.777 40.2034 103.614 39.3863C103.45 38.5691 103.287 37.752 103.287 36.9349C103.287 36.608 103.287 36.2811 103.287 35.9543C102.306 34.8103 101.489 33.5029 100.835 32.032C100.672 32.8491 100.509 33.6663 100.345 34.32C100.182 35.1371 100.182 35.9543 100.182 36.7714C100.018 35.9543 100.018 35.1371 99.8549 34.32C99.8549 33.5029 99.8549 32.6857 99.8549 31.8686C99.8549 31.3783 99.8549 30.888 100.018 30.3977C99.528 29.0903 99.0377 27.7829 98.8743 26.312C98.7109 26.6389 98.5474 26.9657 98.384 27.456C98.0572 28.2731 97.8937 28.9269 97.5669 29.744C97.5669 28.9269 97.7303 28.1097 97.8937 27.2926C98.0572 26.4754 98.2206 25.6583 98.5474 24.8411V24.6777C98.384 23.8606 98.384 22.88 98.384 22.0629C98.384 11.7669 107.046 1.47086 117.995 0C104.267 1.144 93.9714 11.2766 93.9714 26.1486C93.9714 35.7909 99.2012 44.1257 106.882 48.7017C110.805 50.9897 115.054 51.6434 117.995 51.6434C113.91 50.8263 109.824 48.8651 107.699 47.2309L107.863 46.904Z" fill="#CDAC5A"/>
<path d="M145.125 26.6389C145.125 35.7909 140.875 43.9623 134.502 48.8651C142.183 44.1257 147.249 35.7909 147.249 26.1486C147.249 11.1131 136.953 1.144 123.225 0C135.482 1.47086 145.125 12.7474 145.125 26.6389Z" fill="#A5843F"/>
<path d="M106.882 48.7017C100.509 43.9623 96.2594 35.7908 96.2594 26.4754C96.2594 12.7474 105.738 1.3074 117.995 -0.163452C104.267 0.980548 93.9714 11.1131 93.9714 25.9851C93.9714 35.7908 99.2012 44.1257 106.882 48.7017Z" fill="#A5843F"/>
</g>
<defs>
<clipPath id="clip0_2_867">
<rect width="286" height="51.6434" fill="white"/>
</clipPath>
</defs>
</svg>
