<svg width="265" height="23" viewBox="0 0 265 23" fill="none" xmlns="http://www.w3.org/2000/svg">
<path d="M19.091 2.49995L17.1325 6.72219C14.7566 5.30395 11.931 4.40144 10.1326 4.40144C8.43093 4.40144 7.27501 5.01362 7.27501 6.23863C7.27501 10.3966 19.2518 8.07582 19.2194 16.1985C19.2194 20.6146 15.3984 22.9997 10.4215 22.9997C6.72892 22.9997 3.03635 21.5814 0.49968 19.4218L2.52229 15.2638C4.83411 17.3267 8.10936 18.6485 10.4852 18.6485C12.5722 18.6485 13.8245 17.8749 13.8245 16.4891C13.8245 12.2341 1.84776 14.7163 1.84776 6.72253C1.84776 2.62888 5.34785 0.0502472 10.5493 0.0502472C13.6958 0.0502472 16.8426 1.01708 19.09 2.49995H19.091Z" fill="#090A0F"/>
<path d="M38.8645 4.59499V22.8386H33.7912V4.59499H26.9521V0.275624H45.7359V4.59499H38.8645Z" fill="#090A0F"/>
<path d="M56.2077 18.4553L54.4416 22.8389H49.2078L58.9689 0.275938H64.2027L73.8032 22.8389H68.3766L66.6106 18.4553H56.2071H56.2077ZM61.4415 5.59428L57.8773 14.3616H64.9733L61.4412 5.59428H61.4415Z" fill="#090A0F"/>
<path d="M92.3145 16.3923H87.1451V22.8389H82.0721V0.275938H91.8331C97.7091 0.275938 101.048 3.11243 101.048 8.1086C101.048 11.5897 99.5712 14.1037 96.8421 15.3934L101.626 22.8389H95.8787L92.3145 16.3923ZM91.8328 12.1376C94.6263 12.1376 96.2319 10.8483 96.2319 8.26968C96.2319 5.75536 94.6263 4.4982 91.8328 4.4982H87.1448V12.1376H91.8328Z" fill="#090A0F"/>
<path d="M124.116 20.3892V22.8386H111.69V0.275624H114.259V20.3892H124.116Z" fill="#090A0F"/>
<path d="M136.114 2.7578V10.1712H147.448V12.653H136.114V20.3889H149.214V22.8383H133.545V0.27531H148.797V2.75715H136.113L136.114 2.7578Z" fill="#090A0F"/>
<path d="M168.634 0.275938C175.184 0.275938 180.193 5.14318 180.193 11.5576C180.193 17.972 175.152 22.8392 168.538 22.8392H159.547V0.276271H168.634V0.275938ZM162.116 20.3895H168.666C173.675 20.3895 177.593 16.6181 177.593 11.5898C177.593 6.52928 173.611 2.75812 168.57 2.75812H162.116V20.3895Z" fill="#090A0F"/>
<path d="M209.111 11.8151V20.0024C206.895 21.7753 203.781 22.9679 200.762 22.9679C194.244 22.9679 189.043 17.9074 189.043 11.5573C189.043 5.20717 194.277 0.211315 200.891 0.211315C204.006 0.211315 207.024 1.40386 209.175 3.30567L207.698 5.23965C205.868 3.59569 203.395 2.62887 200.891 2.62887C195.753 2.62887 191.644 6.59357 191.644 11.5576C191.644 16.5538 195.785 20.5185 200.923 20.5185C202.946 20.5185 205.097 19.8095 206.831 18.617V11.8158H209.111V11.8151Z" fill="#090A0F"/>
<path d="M223.438 2.7578V10.1712H234.773V12.653H223.438V20.3889H236.539V22.8383H220.87V0.27531H236.121V2.75715H223.438L223.438 2.7578Z" fill="#090A0F"/>
<path d="M256.922 15.6509C256.441 15.6831 255.927 15.7152 255.413 15.7152H249.441V22.8386H246.872V0.275624H255.413C261.032 0.275624 264.275 3.04749 264.275 7.85042C264.275 11.5894 262.477 14.1034 259.234 15.1673L264.5 22.8386H261.578L256.922 15.6506V15.6509ZM255.413 13.2334C259.491 13.2334 261.803 11.4283 261.803 7.91504C261.803 4.49821 259.491 2.7578 255.413 2.7578H249.441V13.2334H255.413Z" fill="#090A0F"/>
</svg>
