<svg width="32" height="24" viewBox="0 0 32 24" fill="none" xmlns="http://www.w3.org/2000/svg">
<path d="M27.1071 2.45553C25.0356 1.545 22.8207 0.883239 20.5052 0.50647C20.2207 0.989507 19.8885 1.63919 19.6595 2.15604C17.198 1.80826 14.7591 1.80826 12.3429 2.15604C12.1139 1.63919 11.774 0.989507 11.4872 0.50647C9.16907 0.883239 6.95167 1.54742 4.88026 2.46036C0.702192 8.39206 -0.430415 14.1765 0.135889 19.8787C2.907 21.8229 5.59254 23.0039 8.23277 23.7768C8.88465 22.9339 9.46605 22.0379 9.96693 21.0935C9.01302 20.753 8.09938 20.3328 7.23607 19.8448C7.46511 19.6855 7.68912 19.5188 7.90558 19.3474C13.171 21.6611 18.8918 21.6611 24.0944 19.3474C24.3132 19.5188 24.5373 19.6855 24.7638 19.8448C23.898 20.3351 22.9819 20.7554 22.0279 21.0959C22.5288 22.0379 23.1077 22.9363 23.7621 23.7792C26.4048 23.0063 29.0929 21.8254 31.864 19.8787C32.5285 13.2684 30.7289 7.53708 27.1071 2.45553ZM10.6842 16.3719C9.10363 16.3719 7.80742 14.9855 7.80742 13.2973C7.80742 11.6091 9.07593 10.2204 10.6842 10.2204C12.2926 10.2204 13.5887 11.6067 13.561 13.2973C13.5636 14.9855 12.2926 16.3719 10.6842 16.3719ZM21.3157 16.3719C19.735 16.3719 18.4388 14.9855 18.4388 13.2973C18.4388 11.6091 19.7074 10.2204 21.3157 10.2204C22.9239 10.2204 24.2202 11.6067 24.1925 13.2973C24.1925 14.9855 22.9239 16.3719 21.3157 16.3719Z" fill="#8D939A"/>
</svg>
